<?xml version="1.0" encoding="UTF-8" standalone="no" ?>
<!DOCTYPE svg PUBLIC "-//W3C//DTD SVG 1.1//EN" "http://www.w3.org/Graphics/SVG/1.1/DTD/svg11.dtd">
<svg xmlns="http://www.w3.org/2000/svg" xmlns:xlink="http://www.w3.org/1999/xlink" version="1.1" width="1080" height="1080" viewBox="0 0 1080 1080" xml:space="preserve">
<desc>Created with Fabric.js 5.2.4</desc>
<defs>
</defs>
<rect x="0" y="0" width="100%" height="100%" fill="transparent"></rect>
<g transform="matrix(1 0 0 1 540 540)" id="fd7a9848-3ae7-43b9-bfd5-cb3be85b9a51"  >
<rect style="stroke: none; stroke-width: 1; stroke-dasharray: none; stroke-linecap: butt; stroke-dashoffset: 0; stroke-linejoin: miter; stroke-miterlimit: 4; fill: rgb(255,255,255); fill-rule: nonzero; opacity: 1; visibility: hidden;" vector-effect="non-scaling-stroke"  x="-540" y="-540" rx="0" ry="0" width="1080" height="1080" />
</g>
<g transform="matrix(1 0 0 1 540 540)" id="48a0be0f-d97c-49b2-a8f8-ed80fedad231"  >
</g>
<g transform="matrix(-29.93 0 0 30.14 601.29 540)" id="d6184c83-d79a-49e6-8804-50782525cfe8"  >
<path style="stroke: rgb(0,0,0); stroke-width: 0; stroke-dasharray: none; stroke-linecap: butt; stroke-dashoffset: 0; stroke-linejoin: miter; stroke-miterlimit: 4; fill: rgb(0,0,0); fill-rule: nonzero; opacity: 1;" vector-effect="non-scaling-stroke"  transform=" translate(-9.17, -16)" d="M 16.75 3 L 16.743 2.967 C 16.738 2.911 16.727 2.86 16.711 2.811 L 16.712 2.816 C 16.701999999999998 2.766 16.689 2.722 16.673 2.679 L 16.674999999999997 2.6839999999999997 C 16.650999999999996 2.6399999999999997 16.624999999999996 2.602 16.595999999999997 2.5669999999999997 L 16.596999999999998 2.5679999999999996 C 16.569 2.5249999999999995 16.54 2.4879999999999995 16.506999999999998 2.4529999999999994 L 16.506999999999998 2.4529999999999994 C 16.476 2.4269999999999996 16.441 2.4039999999999995 16.403999999999996 2.3829999999999996 L 16.399999999999995 2.381 C 16.358999999999995 2.351 16.311999999999994 2.324 16.261999999999993 2.3019999999999996 L 16.256999999999994 2.3 L 16.229999999999993 2.2849999999999997 C 16.196999999999992 2.2779999999999996 16.158999999999992 2.2739999999999996 16.118999999999993 2.272 L 16.11799999999999 2.272 C 16.083999999999993 2.262 16.042999999999992 2.2529999999999997 16.001999999999992 2.2479999999999998 L 15.998999999999992 2.2479999999999998 L 15.966999999999992 2.255 C 15.911999999999992 2.26 15.860999999999992 2.271 15.811999999999992 2.287 L 15.816999999999993 2.286 C 15.765999999999993 2.296 15.720999999999993 2.309 15.678999999999993 2.326 L 15.683999999999994 2.3240000000000003 C 15.640999999999995 2.3480000000000003 15.603999999999994 2.373 15.569999999999993 2.4010000000000002 L 15.570999999999993 2.4000000000000004 C 15.526999999999992 2.4280000000000004 15.488999999999992 2.458 15.453999999999992 2.4920000000000004 L 15.453999999999992 2.4920000000000004 C 15.428999999999991 2.5230000000000006 15.405999999999992 2.5570000000000004 15.384999999999991 2.5930000000000004 L 15.38299999999999 2.5970000000000004 C 15.35199999999999 2.6390000000000002 15.32499999999999 2.6860000000000004 15.30399999999999 2.7360000000000007 L 15.301999999999989 2.7410000000000005 L 15.286999999999988 2.7680000000000007 L 12.227999999999987 12.180000000000001 L 2.330999999999987 12.180000000000001 C 1.9169999999999872 12.180000000000001 1.581999999999987 12.516000000000002 1.581999999999987 12.930000000000001 C 1.581999999999987 13.178 1.702999999999987 13.399000000000001 1.888999999999987 13.535000000000002 L 1.890999999999987 13.536000000000001 L 9.897999999999987 19.354 L 6.838999999999987 28.766 C 6.815999999999987 28.834999999999997 6.801999999999987 28.915 6.801999999999987 28.997999999999998 C 6.801999999999987 29.412 7.1379999999999875 29.747999999999998 7.551999999999987 29.747999999999998 C 7.716999999999987 29.747999999999998 7.869999999999987 29.694999999999997 7.993999999999987 29.604 L 7.991999999999988 29.605 L 16.439999999999987 23.466 C 16.456999999999987 23.454 16.464999999999986 23.436 16.479999999999986 23.422 C 16.549999999999986 23.356 16.609999999999985 23.281000000000002 16.657999999999987 23.199 L 16.660999999999987 23.194000000000003 C 16.697999999999986 23.112000000000002 16.72599999999999 23.018000000000004 16.73799999999999 22.919000000000004 L 16.73799999999999 22.914000000000005 C 16.73899999999999 22.895000000000007 16.748999999999988 22.878000000000004 16.748999999999988 22.858000000000004 z M 11.492 19.301 C 11.516 19.230999999999998 11.529000000000002 19.151 11.529000000000002 19.067999999999998 C 11.529000000000002 18.819 11.408000000000001 18.598999999999997 11.222000000000001 18.462999999999997 L 11.22 18.461999999999996 L 4.640000000000001 13.681999999999995 L 12.774000000000001 13.681999999999995 C 12.774000000000001 13.681999999999995 12.775 13.681999999999995 12.775 13.681999999999995 C 13.106 13.681999999999995 13.387 13.466999999999995 13.485 13.168999999999995 L 13.487 13.163999999999994 L 15.251 7.735999999999994 L 15.251 22.480999999999995 L 8.98 27.038999999999994 z" stroke-linecap="round" />
</g>
</svg>