<svg version="1.1" id="Layer_1" xmlns="http://www.w3.org/2000/svg" xmlns:xlink="http://www.w3.org/1999/xlink" x="0px" y="0px"
	 width="100%" viewBox="0 0 257 196" enable-background="new 0 0 257 196" xml:space="preserve">
<path fill="#000000" opacity="1.000000" stroke="none" 
	d="
M189.000000,197.000000 
	C126.000000,197.000000 63.500008,197.000000 1.000008,197.000000 
	C1.000006,131.666672 1.000006,66.333351 1.000003,1.000017 
	C86.666656,1.000011 172.333313,1.000011 258.000000,1.000006 
	C258.000000,66.333321 258.000000,131.666641 258.000000,196.999969 
	C235.166672,197.000000 212.333328,197.000000 189.000000,197.000000 
M152.825165,165.997299 
	C174.767792,158.444550 189.555099,143.511993 198.771729,121.749062 
	C199.234833,119.165359 199.697937,116.581657 200.896057,113.582771 
	C201.259995,109.827232 201.727112,106.078354 201.970306,102.315018 
	C203.136734,84.266113 197.936279,68.011017 187.700256,53.311306 
	C186.391373,51.431667 183.928909,50.355312 182.003082,48.152348 
	C181.339554,47.377934 180.676025,46.603519 179.734192,45.228470 
	C164.354752,31.577271 146.572159,24.277250 125.820457,24.951704 
	C123.560913,25.025143 121.317543,25.596115 118.721970,25.211153 
	C115.103767,26.123356 111.485565,27.035559 107.220581,28.252895 
	C102.266312,30.550543 97.134621,32.534416 92.396156,35.213726 
	C83.600739,40.186993 76.312134,47.023056 70.357048,55.155884 
	C65.985039,61.126705 61.277214,67.039452 60.220028,75.235931 
	C59.759598,76.821465 59.299168,78.406998 58.114922,80.414192 
	C57.105251,91.962738 55.874882,103.484802 58.947357,114.971802 
	C61.838257,125.779961 66.151321,135.780640 74.004257,144.755920 
	C75.987602,146.534866 77.970947,148.313797 80.160873,150.746826 
	C88.377335,155.836395 96.106514,162.124908 104.933449,165.712433 
	C115.997948,170.209396 128.112854,170.621338 140.934143,168.965378 
	C144.641342,167.995438 148.348541,167.025513 152.825165,165.997299 
z"/>
<path fill="#FEFDFC" opacity="1.000000" stroke="none" 
	d="
M200.161041,113.997940 
	C199.697937,116.581657 199.234833,119.165359 198.125351,121.726173 
	C195.601425,114.051620 189.187897,109.930092 184.059326,104.926315 
	C180.480408,101.434502 176.117538,98.746201 171.799057,95.466774 
	C170.427719,101.519730 169.915878,106.898636 167.934280,111.666725 
	C165.865280,116.645119 162.278427,120.976364 159.558899,125.707649 
	C158.200531,128.070862 156.829208,130.595734 156.270309,133.219315 
	C154.170914,143.074097 152.348282,152.989899 150.602325,162.914566 
	C150.438202,163.847473 151.541107,165.003265 152.055740,166.055588 
	C148.348541,167.025513 144.641342,167.995438 140.713837,168.605865 
	C142.059189,167.098038 144.445877,166.278214 145.057938,164.748383 
	C149.188446,154.424301 151.669098,143.701385 152.041077,132.274902 
	C136.101440,138.391693 138.870972,139.362701 117.743439,136.821655 
	C116.347160,136.653732 114.796799,137.097946 113.418282,137.557770 
	C103.042206,141.018875 92.681740,144.527893 82.348907,148.115585 
	C81.432365,148.433823 80.747017,149.417908 79.954300,150.092743 
	C77.970947,148.313797 75.987602,146.534866 74.332741,144.502869 
	C76.260071,144.369904 77.989906,144.948257 79.436234,144.534821 
	C88.028839,142.078568 96.571541,139.442383 105.091980,136.743439 
	C106.860641,136.183197 108.464928,135.104034 110.943199,133.864914 
	C99.625427,127.334633 92.644455,118.647537 89.489449,106.985138 
	C89.171822,105.811035 88.192551,104.671913 87.239998,103.836029 
	C78.416168,96.092987 69.537094,88.412758 60.645374,80.747581 
	C60.175434,80.342461 59.446888,80.237320 58.838737,79.992523 
	C59.299168,78.406998 59.759598,76.821465 60.743538,75.389786 
	C65.100166,79.435822 68.758820,83.521866 72.812012,87.169502 
	C77.528473,91.414032 82.590401,95.274696 87.859215,99.594498 
	C88.395546,98.105766 88.705719,97.660774 88.690079,97.227531 
	C88.268150,85.537033 92.882538,75.970604 100.816902,67.674843 
	C101.951431,66.488632 102.522942,64.536705 102.848854,62.841831 
	C104.722343,53.098614 106.509483,43.337208 108.156113,33.553387 
	C108.459282,31.752068 107.983566,29.819660 107.867371,27.947762 
	C111.485565,27.035559 115.103767,26.123356 118.526047,25.667442 
	C117.062805,26.773626 115.047897,27.120644 114.643021,28.119955 
	C110.280701,38.887299 107.532959,50.039314 107.035271,62.322544 
	C108.699402,61.598949 109.737152,61.186722 110.741524,60.704899 
	C119.897141,56.312740 129.398163,55.199699 139.396423,57.143467 
	C141.772034,57.605309 144.530136,57.116096 146.905563,56.388943 
	C157.980881,52.998619 168.983734,49.371521 180.012497,45.829109 
	C180.676025,46.603519 181.339554,47.377934 181.614090,48.593117 
	C170.382690,52.459724 159.540283,55.885559 148.630630,59.332642 
	C149.126907,60.611626 149.141693,60.825245 149.254425,60.912857 
	C150.291916,61.719276 151.326294,62.532291 152.399078,63.290302 
	C160.257843,68.843063 165.704605,76.125771 168.919785,85.248116 
	C169.782059,87.694595 171.653687,90.028870 173.616348,91.800438 
	C180.882904,98.359512 188.361359,104.685081 195.810852,111.038986 
	C197.137253,112.170311 198.704834,113.018837 200.161041,113.997940 
z"/>
<path fill="#53B347" opacity="1.000000" stroke="none" 
	d="
M200.528549,113.790359 
	C198.704834,113.018837 197.137253,112.170311 195.810852,111.038986 
	C188.361359,104.685081 180.882904,98.359512 173.616348,91.800438 
	C171.653687,90.028870 169.782059,87.694595 168.919785,85.248116 
	C165.704605,76.125771 160.257843,68.843063 152.399078,63.290302 
	C151.326294,62.532291 150.291916,61.719276 149.254425,60.912857 
	C149.141693,60.825245 149.126907,60.611626 148.630630,59.332642 
	C159.540283,55.885559 170.382690,52.459724 181.612976,48.970356 
	C183.928909,50.355312 186.391373,51.431667 187.700256,53.311306 
	C197.936279,68.011017 203.136734,84.266113 201.970306,102.315018 
	C201.727112,106.078354 201.259995,109.827232 200.528549,113.790359 
z"/>
<path fill="#F6EC58" opacity="1.000000" stroke="none" 
	d="
M58.476830,80.203354 
	C59.446888,80.237320 60.175434,80.342461 60.645374,80.747581 
	C69.537094,88.412758 78.416168,96.092987 87.239998,103.836029 
	C88.192551,104.671913 89.171822,105.811035 89.489449,106.985138 
	C92.644455,118.647537 99.625427,127.334633 110.943199,133.864914 
	C108.464928,135.104034 106.860641,136.183197 105.091980,136.743439 
	C96.571541,139.442383 88.028839,142.078568 79.436234,144.534821 
	C77.989906,144.948257 76.260071,144.369904 74.281082,144.151871 
	C66.151321,135.780640 61.838257,125.779961 58.947357,114.971802 
	C55.874882,103.484802 57.105251,91.962738 58.476830,80.203354 
z"/>
<path fill="#CE4880" opacity="1.000000" stroke="none" 
	d="
M80.057587,150.419785 
	C80.747017,149.417908 81.432365,148.433823 82.348907,148.115585 
	C92.681740,144.527893 103.042206,141.018875 113.418282,137.557770 
	C114.796799,137.097946 116.347160,136.653732 117.743439,136.821655 
	C138.870972,139.362701 136.101440,138.391693 152.041077,132.274902 
	C151.669098,143.701385 149.188446,154.424301 145.057938,164.748383 
	C144.445877,166.278214 142.059189,167.098038 140.292358,168.544067 
	C128.112854,170.621338 115.997948,170.209396 104.933449,165.712433 
	C96.106514,162.124908 88.377335,155.836395 80.057587,150.419785 
z"/>
<path fill="#6FC5DB" opacity="1.000000" stroke="none" 
	d="
M107.543976,28.100327 
	C107.983566,29.819660 108.459282,31.752068 108.156113,33.553387 
	C106.509483,43.337208 104.722343,53.098614 102.848854,62.841831 
	C102.522942,64.536705 101.951431,66.488632 100.816902,67.674843 
	C92.882538,75.970604 88.268150,85.537033 88.690079,97.227531 
	C88.705719,97.660774 88.395546,98.105766 87.859215,99.594498 
	C82.590401,95.274696 77.528473,91.414032 72.812012,87.169502 
	C68.758820,83.521866 65.100166,79.435822 61.087559,75.253914 
	C61.277214,67.039452 65.985039,61.126705 70.357048,55.155884 
	C76.312134,47.023056 83.600739,40.186993 92.396156,35.213726 
	C97.134621,32.534416 102.266312,30.550543 107.543976,28.100327 
z"/>
<path fill="#EBA3BD" opacity="1.000000" stroke="none" 
	d="
M152.440460,166.026443 
	C151.541107,165.003265 150.438202,163.847473 150.602325,162.914566 
	C152.348282,152.989899 154.170914,143.074097 156.270309,133.219315 
	C156.829208,130.595734 158.200531,128.070862 159.558899,125.707649 
	C162.278427,120.976364 165.865280,116.645119 167.934280,111.666725 
	C169.915878,106.898636 170.427719,101.519730 171.799057,95.466774 
	C176.117538,98.746201 180.480408,101.434502 184.059326,104.926315 
	C189.187897,109.930092 195.601425,114.051620 197.779175,121.911575 
	C189.555099,143.511993 174.767792,158.444550 152.440460,166.026443 
z"/>
<path fill="#CF524E" opacity="1.000000" stroke="none" 
	d="
M179.873352,45.528786 
	C168.983734,49.371521 157.980881,52.998619 146.905563,56.388943 
	C144.530136,57.116096 141.772034,57.605309 139.396423,57.143467 
	C129.398163,55.199699 119.897141,56.312740 110.741524,60.704899 
	C109.737152,61.186722 108.699402,61.598949 107.035271,62.322544 
	C107.532959,50.039314 110.280701,38.887299 114.643021,28.119955 
	C115.047897,27.120644 117.062805,26.773626 118.698395,26.030022 
	C121.317543,25.596115 123.560913,25.025143 125.820457,24.951704 
	C146.572159,24.277250 164.354752,31.577271 179.873352,45.528786 
z"/>
</svg>